<?xml version="1.0" encoding="utf-8"?>
<!-- Generator: Adobe Illustrator 16.0.0, SVG Export Plug-In . SVG Version: 6.00 Build 0)  -->
<!DOCTYPE svg PUBLIC "-//W3C//DTD SVG 1.1//EN" "http://www.w3.org/Graphics/SVG/1.1/DTD/svg11.dtd">
<svg version="1.1" id="Capa_1" xmlns="http://www.w3.org/2000/svg" xmlns:xlink="http://www.w3.org/1999/xlink" x="0px" y="0px"
	 width="24px" height="24px" viewBox="0 0 24 24" enable-background="new 0 0 24 24" xml:space="preserve">
<polygon fill="#FCFCFC" points="18.542,1 6.458,11.792 10.917,12.875 5.917,22.958 17.875,12.021 13.675,11.048 "/>
<path fill="none" d="M12.229,21.751c5.374,0,9.73-4.356,9.73-9.73c0-3.291-1.639-6.195-4.141-7.956L9.041,21.206
	C10.041,21.553,11.11,21.751,12.229,21.751z"/>
<path fill="none" d="M12.229,2.291c-5.373,0-9.729,4.356-9.729,9.729c0,3.35,1.693,6.302,4.269,8.053l8.797-17.183
	C14.522,2.51,13.402,2.291,12.229,2.291z"/>
<path fill="#FCFCFC" d="M2.499,12.021c0-5.373,4.356-9.729,9.729-9.729c1.174,0,2.294,0.219,3.336,0.6l0.555-1.082
	c-1.211-0.461-2.519-0.725-3.891-0.725c-6.04,0-10.937,4.897-10.937,10.937c0,3.818,1.959,7.175,4.924,9.131l0.552-1.078
	C4.192,18.322,2.499,15.37,2.499,12.021z"/>
<path fill="#FCFCFC" d="M18.376,2.976l-0.558,1.089c2.502,1.761,4.141,4.665,4.141,7.956c0,5.374-4.356,9.73-9.73,9.73
	c-1.118,0-2.188-0.198-3.188-0.545l-0.554,1.081c1.169,0.427,2.425,0.671,3.741,0.671c6.041,0,10.938-4.896,10.938-10.938
	C23.166,8.26,21.267,4.944,18.376,2.976z"/>
</svg>
